ply
format ascii 1.0
comment Archivo PLY hecho por mi, contiene los vertices y caras de un asiento para la atracción diseñada en la Practica 3
element vertex 22
property float32 x
property float32 y
property float32 z
element face 39
property list uint8 int32 vertex_indices
end_header
0.0 0.0 1.0
1.0 0.0 1.0
1.0 0.0 0.25
0.75 0.0 0.0
0.25 0.0 0.0
0.0 0.0 0.25
0.0 0.25 1.0
1.0 0.25 1.0
1.0 0.25 0.25
0.75 0.25 0.0
0.25 0.25 0.0
0.0 0.25 0.25
0.0 0.25 0.75
1.0 0.25 0.75
0.0 0.75 0.75
1.0 0.75 0.75
0.25 1.0 0.75
0.75 1.0 0.75
1.0 0.75 1.0
0.75 1.0 1.0
0.25 1.0 1.0
0.0 0.75 1.0
3 6 1 0
3 6 7 1
3 21 7 6
3 21 18 7
3 20 19 18
3 20 18 21
3 18 15 13
3 18 13 7
3 19 17 15
3 19 15 18
3 16 17 20
3 17 19 20
3 16 20 21
3 14 16 21
3 6 14 21
3 6 12 14
3 6 0 5
3 11 6 5
3 11 5 4
3 10 11 4
3 10 4 3
3 9 10 3
3 9 3 2
3 8 9 2
3 8 2 1
3 7 8 1
3 9 10 11
3 8 9 11
3 8 11 12
3 8 12 13
3 12 13 14
3 15 14 13
3 16 14 15
3 17 16 15
3 0 2 5
3 0 2 7
3 3 4 5
3 2 3 5
3 0 1 2
